<svg xmlns="http://www.w3.org/2000/svg" viewBox="0 0 160 200">
  <title>GridFinium logo</title>
  <path fill="#000" d="M40 12h80c11.05 0 20 8.95 20 20v58c0 11.05-8.95 20-20 20H94v-18h26c3.31 0 6-2.69 6-6V38c0-3.31-2.69-6-6-6H46c-3.31 0-6 2.69-6 6v124c0 3.31 2.69 6 6 6h34v18H50c-16.57 0-30-13.43-30-30V32c0-11.05 8.95-20 20-20Z"/>
  <path fill="#000" d="M112 46H48l-10-20h84l-10 20Zm-14 12H62l10 20h26l10-20Zm-18 28-10 18h36l-10-18Z"/>
  <g fill="#000">
    <rect x="48" y="126" width="18" height="18" rx="2"/>
    <rect x="70" y="126" width="18" height="18" rx="2"/>
    <rect x="92" y="126" width="18" height="18" rx="2"/>
    <rect x="48" y="148" width="18" height="18" rx="2"/>
    <rect x="70" y="148" width="18" height="18" rx="2"/>
    <rect x="92" y="148" width="18" height="18" rx="2"/>
    <rect x="48" y="170" width="18" height="18" rx="2"/>
    <rect x="70" y="170" width="18" height="18" rx="2"/>
    <rect x="92" y="170" width="18" height="18" rx="2"/>
  </g>
</svg>
